<svg xmlns="http://www.w3.org/2000/svg" width="107" height="137" viewBox="0 0 107 137" fill="none"><g clip-path="url(#clip0_789_129)"><path d="M84.99 78.1398C52.75 81.2098 50.3 84.6299 48.41 136.05C48.4 136.27 48.07 136.27 48.06 136.05C46.17 84.6299 43.71 81.2198 11.48 78.1398C11.27 78.1198 11.27 77.8098 11.48 77.7898C43.72 74.7198 46.17 71.2998 48.06 19.8798C48.07 19.6598 48.4 19.6598 48.41 19.8798C50.3 71.2998 52.76 74.7098 84.99 77.7898C85.2 77.8098 85.2 78.1198 84.99 78.1398Z" fill="white"></path><path d="M106.06 33.2399C87.72 34.9899 86.32 36.9299 85.24 66.1899C85.24 66.3199 85.05 66.3199 85.04 66.1899C83.96 36.9399 82.57 34.9899 64.22 33.2399C64.1 33.2299 64.1 33.0499 64.22 33.0399C82.56 31.2899 83.96 29.3499 85.04 0.0899316C85.04 -0.0400684 85.23 -0.0400684 85.24 0.0899316C86.32 29.3399 87.71 31.2899 106.06 33.0399C106.18 33.0499 106.18 33.2299 106.06 33.2399Z" fill="white"></path><path d="M25.57 34.2099C14.38 35.2799 13.53 36.4599 12.87 54.3099C12.87 54.3899 12.75 54.3899 12.75 54.3099C12.09 36.4599 11.24 35.2799 0.0499976 34.2099C-0.0200024 34.1999 -0.0200024 34.0999 0.0499976 34.0899C11.24 33.0199 12.09 31.8399 12.75 13.9899C12.75 13.9099 12.87 13.9099 12.87 13.9899C13.53 31.8399 14.38 33.0199 25.57 34.0899C25.65 34.0899 25.65 34.1999 25.57 34.2099Z" fill="white"></path></g><defs><clipPath id="clip0_789_129"><rect width="106.15" height="136.21" fill="white"></rect></clipPath></defs></svg>