<svg xmlns="http://www.w3.org/2000/svg" width="107" height="137" viewBox="0 0 107 137" fill="none"><path d="M84.9898 78.1398C52.7498 81.2098 50.2998 84.6299 48.4098 136.05C48.3998 136.27 48.0698 136.27 48.0598 136.05C46.1698 84.6299 43.7098 81.2198 11.4798 78.1398C11.2698 78.1198 11.2698 77.8098 11.4798 77.7898C43.7198 74.7198 46.1698 71.2998 48.0598 19.8798C48.0698 19.6598 48.3998 19.6598 48.4098 19.8798C50.2998 71.2998 52.7598 74.7098 84.9898 77.7898C85.1998 77.8098 85.1998 78.1198 84.9898 78.1398Z" fill="#1B1B1B"></path><path d="M106.061 33.2397C87.7209 34.9897 86.3209 36.9297 85.2409 66.1897C85.2409 66.3197 85.0509 66.3197 85.0409 66.1897C83.9609 36.9397 82.5709 34.9897 64.2209 33.2397C64.1009 33.2297 64.1009 33.0497 64.2209 33.0397C82.5609 31.2897 83.9609 29.3497 85.0409 0.0896875C85.0409 -0.0403125 85.2309 -0.0403125 85.2409 0.0896875C86.3209 29.3397 87.7109 31.2897 106.061 33.0397C106.181 33.0497 106.181 33.2297 106.061 33.2397Z" fill="#1B1B1B"></path><path d="M25.5705 34.2097C14.3805 35.2797 13.5305 36.4597 12.8705 54.3097C12.8705 54.3897 12.7505 54.3897 12.7505 54.3097C12.0905 36.4597 11.2405 35.2797 0.0505469 34.2097C-0.0194531 34.1997 -0.0194531 34.0997 0.0505469 34.0897C11.2405 33.0197 12.0905 31.8397 12.7505 13.9897C12.7505 13.9097 12.8705 13.9097 12.8705 13.9897C13.5305 31.8397 14.3805 33.0197 25.5705 34.0897C25.6505 34.0897 25.6505 34.1997 25.5705 34.2097Z" fill="#1B1B1B"></path></svg>