<svg xmlns="http://www.w3.org/2000/svg" width="372" height="639" viewBox="0 0 372 639" fill="none"><path opacity="0.5" d="M414.372 272.777L4.04742 160.643" stroke="#D9D9D9" stroke-width="0.1545" stroke-miterlimit="10" stroke-linecap="round"></path><path d="M86.4526 56.5117L0.199302 210.348" stroke="#D9D9D9" stroke-width="0.2575" stroke-miterlimit="10" stroke-linecap="round"></path><path d="M0.199225 385.969L260.753 630.966" stroke="#D9D9D9" stroke-width="0.2575" stroke-miterlimit="10" stroke-linecap="round"></path><path d="M0.199225 376.188L260.753 585.616" stroke="#D9D9D9" stroke-width="0.2575" stroke-miterlimit="10" stroke-linecap="round"></path><path d="M86.4529 278.818L451.918 177.155" stroke="#D9D9D9" stroke-width="0.2575" stroke-miterlimit="10" stroke-linecap="round"></path><path d="M227.852 585.616L626.801 409.534" stroke="#D9D9D9" stroke-width="0.2575" stroke-miterlimit="10" stroke-linecap="round"></path><path d="M227.852 630.966L626.801 428.208" stroke="#D9D9D9" stroke-width="0.2575" stroke-miterlimit="10" stroke-linecap="round"></path><path d="M242.938 253.046L0.199616 303.149" stroke="#D9D9D9" stroke-width="0.2575" stroke-miterlimit="10" stroke-linecap="round"></path><path d="M216.875 254.809L626.801 309.941" stroke="#D9D9D9" stroke-width="0.2575" stroke-miterlimit="10" stroke-linecap="round"></path><path d="M626.801 387.012L205.392 502.029" stroke="#D9D9D9" stroke-width="0.2575" stroke-miterlimit="10" stroke-linecap="round"></path><path d="M237.174 502.029L0.199532 362.712" stroke="#D9D9D9" stroke-width="0.2575" stroke-miterlimit="10" stroke-linecap="round"></path><path d="M46.4383 69.8501L626.801 278.097" stroke="#D9D9D9" stroke-width="0.2575" stroke-miterlimit="10" stroke-linecap="round"></path><path d="M451.918 322.881L0.199529 330.776" stroke="#D9D9D9" stroke-width="0.2575" stroke-miterlimit="10" stroke-linecap="round"></path><path d="M441.247 456.234L0.199178 344.621" stroke="#D9D9D9" stroke-width="0.2575" stroke-miterlimit="10" stroke-linecap="round"></path><g opacity="0.5"><path d="M86.4526 51.6975L0.199302 205.549" stroke="#D9D9D9" stroke-width="0.1545" stroke-miterlimit="10" stroke-linecap="round"></path><path d="M0.199225 381.171L260.753 626.152" stroke="#D9D9D9" stroke-width="0.1545" stroke-miterlimit="10" stroke-linecap="round"></path><path d="M0.199225 371.389L260.753 580.802" stroke="#D9D9D9" stroke-width="0.1545" stroke-miterlimit="10" stroke-linecap="round"></path><path d="M86.4529 274.019L451.918 172.341" stroke="#D9D9D9" stroke-width="0.1545" stroke-miterlimit="10" stroke-linecap="round"></path><path d="M227.852 580.802L626.801 404.735" stroke="#D9D9D9" stroke-width="0.1545" stroke-miterlimit="10" stroke-linecap="round"></path><path d="M227.852 626.152L626.801 423.409" stroke="#D9D9D9" stroke-width="0.1545" stroke-miterlimit="10" stroke-linecap="round"></path><path d="M242.938 248.247L0.199616 298.335" stroke="#D9D9D9" stroke-width="0.1545" stroke-miterlimit="10" stroke-linecap="round"></path><path d="M216.875 250.01L626.801 305.142" stroke="#D9D9D9" stroke-width="0.1545" stroke-miterlimit="10" stroke-linecap="round"></path><path d="M626.801 382.213L205.392 497.214" stroke="#D9D9D9" stroke-width="0.1545" stroke-miterlimit="10" stroke-linecap="round"></path><path d="M237.174 497.214L0.199532 357.897" stroke="#D9D9D9" stroke-width="0.1545" stroke-miterlimit="10" stroke-linecap="round"></path><path d="M46.4383 65.0359L626.801 273.283" stroke="#D9D9D9" stroke-width="0.1545" stroke-miterlimit="10" stroke-linecap="round"></path><path d="M451.918 318.082L0.199529 325.977" stroke="#D9D9D9" stroke-width="0.1545" stroke-miterlimit="10" stroke-linecap="round"></path><path d="M441.247 451.419L0.199178 339.822" stroke="#D9D9D9" stroke-width="0.1545" stroke-miterlimit="10" stroke-linecap="round"></path></g><g opacity="0.5"><path d="M86.4526 60.1912L0.199302 214.027" stroke="#D9D9D9" stroke-width="0.1545" stroke-miterlimit="10" stroke-linecap="round"></path><path d="M0.199225 389.664L260.753 634.646" stroke="#D9D9D9" stroke-width="0.1545" stroke-miterlimit="10" stroke-linecap="round"></path><path d="M0.199225 379.883L260.753 589.295" stroke="#D9D9D9" stroke-width="0.1545" stroke-miterlimit="10" stroke-linecap="round"></path><path d="M86.4529 282.513L451.918 180.834" stroke="#D9D9D9" stroke-width="0.1545" stroke-miterlimit="10" stroke-linecap="round"></path><path d="M227.852 589.295L626.801 413.229" stroke="#D9D9D9" stroke-width="0.1545" stroke-miterlimit="10" stroke-linecap="round"></path><path d="M227.852 634.646L626.801 431.902" stroke="#D9D9D9" stroke-width="0.1545" stroke-miterlimit="10" stroke-linecap="round"></path><path d="M242.938 256.74L0.199616 306.828" stroke="#D9D9D9" stroke-width="0.1545" stroke-miterlimit="10" stroke-linecap="round"></path><path d="M216.875 258.504L626.801 313.636" stroke="#D9D9D9" stroke-width="0.1545" stroke-miterlimit="10" stroke-linecap="round"></path><path d="M626.801 390.691L205.392 505.708" stroke="#D9D9D9" stroke-width="0.1545" stroke-miterlimit="10" stroke-linecap="round"></path><path d="M237.174 505.708L0.199532 366.391" stroke="#D9D9D9" stroke-width="0.1545" stroke-miterlimit="10" stroke-linecap="round"></path><path d="M46.4383 73.5295L626.801 281.777" stroke="#D9D9D9" stroke-width="0.1545" stroke-miterlimit="10" stroke-linecap="round"></path><path d="M451.918 326.575L0.199529 334.471" stroke="#D9D9D9" stroke-width="0.1545" stroke-miterlimit="10" stroke-linecap="round"></path><path d="M441.247 459.913L0.199178 348.315" stroke="#D9D9D9" stroke-width="0.1545" stroke-miterlimit="10" stroke-linecap="round"></path></g><path d="M366.554 275.89V458.043L357.14 460.603V274.663L366.554 275.89Z" stroke="#D9D9D9" stroke-width="0.2575" stroke-miterlimit="10" stroke-linecap="round"></path><path d="M357.14 274.663L347.589 276.15V457.153L357.14 460.603" stroke="#D9D9D9" stroke-width="0.2575" stroke-miterlimit="10" stroke-linecap="round"></path><path d="M227.101 496.095V256.296L240.424 257.982V492.462L227.101 496.095Z" stroke="#D9D9D9" stroke-width="0.2575" stroke-miterlimit="10" stroke-linecap="round"></path><path d="M227.101 256.296L215.005 258.81V488.981L227.101 496.095V256.296Z" stroke="#D9D9D9" stroke-width="0.2575" stroke-miterlimit="10" stroke-linecap="round"></path><path d="M73.5132 79.5703V454.915L66.2922 448.123V92.4487L73.5132 79.5703Z" stroke="#D9D9D9" stroke-width="0.515" stroke-miterlimit="10" stroke-linecap="round"></path><path d="M73.5134 79.5703L84.8125 83.6178V453.367L73.5134 454.915V79.5703Z" stroke="#D9D9D9" stroke-width="0.515" stroke-miterlimit="10" stroke-linecap="round"></path><path d="M11.2381 190.662V396.349L15.5615 400.427V182.935L11.2381 190.662Z" stroke="#D9D9D9" stroke-width="0.2575" stroke-miterlimit="10" stroke-linecap="round"></path><path d="M15.5613 182.935L22.353 185.235V400.427H15.5613" stroke="#D9D9D9" stroke-width="0.2575" stroke-miterlimit="10" stroke-linecap="round"></path><path d="M280.454 153.821V426.445L270.703 428.208V150.325L280.454 153.821Z" stroke="#D9D9D9" stroke-width="0.2575" stroke-miterlimit="10" stroke-linecap="round"></path><path d="M270.703 150.325L260.753 155.66V423.547L270.703 428.208V150.325Z" stroke="#D9D9D9" stroke-width="0.2575" stroke-miterlimit="10" stroke-linecap="round"></path><path d="M64.0385 456.234L626.801 378.779" stroke="#D9D9D9" stroke-width="0.2575" stroke-miterlimit="10" stroke-linecap="round"></path><path d="M22.3532 440.227L115.644 430.584V279.186" stroke="#D9D9D9" stroke-width="0.515" stroke-miterlimit="10" stroke-linecap="round"></path><path d="M127.326 121.348L231.716 156.013" stroke="#D9D9D9" stroke-width="0.515" stroke-miterlimit="10" stroke-linecap="round"></path><path d="M225.139 148.914V256.296" stroke="#D9D9D9" stroke-width="0.515" stroke-miterlimit="10" stroke-linecap="round"></path><path d="M225.139 153.836L203.798 163.142L132.37 140.911" stroke="#D9D9D9" stroke-width="0.515" stroke-miterlimit="10" stroke-linecap="round"></path><path d="M203.798 163.142V259.884" stroke="#D9D9D9" stroke-width="0.515" stroke-miterlimit="10" stroke-linecap="round"></path><path d="M196.239 262.658V168.477L132.369 148.914" stroke="#D9D9D9" stroke-width="0.515" stroke-miterlimit="10" stroke-linecap="round"></path><path d="M196.239 168.477L190.904 171.59L132.369 153.805" stroke="#D9D9D9" stroke-width="0.515" stroke-miterlimit="10" stroke-linecap="round"></path><path d="M190.904 171.59V263.793" stroke="#D9D9D9" stroke-width="0.515" stroke-miterlimit="10" stroke-linecap="round"></path><path d="M157.237 156.534V270.723" stroke="#D9D9D9" stroke-width="0.515" stroke-miterlimit="10" stroke-linecap="round"></path><path d="M152.361 271.735V155.032L148.391 158.665V272.547" stroke="#D9D9D9" stroke-width="0.515" stroke-miterlimit="10" stroke-linecap="round" stroke-linejoin="round"></path><path d="M56.5107 156.994V256.296L28.7919 270.37V193.452L56.5107 156.994Z" stroke="#D9D9D9" stroke-width="0.515" stroke-miterlimit="10" stroke-linecap="round"></path><path d="M28.7919 193.452H36.6568L56.5107 172.709" stroke="#D9D9D9" stroke-width="0.515" stroke-miterlimit="10" stroke-linecap="round"></path><path d="M36.6572 193.452V266.139" stroke="#D9D9D9" stroke-width="0.515" stroke-miterlimit="10" stroke-linecap="round"></path><path d="M39.3244 265.02V195.231L56.5107 177.155" stroke="#D9D9D9" stroke-width="0.515" stroke-miterlimit="10" stroke-linecap="round"></path><path d="M39.3244 195.231H41.4708L56.5107 180.789" stroke="#D9D9D9" stroke-width="0.515" stroke-miterlimit="10" stroke-linecap="round"></path><path d="M41.4712 195.231V263.931" stroke="#D9D9D9" stroke-width="0.515" stroke-miterlimit="10" stroke-linecap="round"></path><path d="M252.888 489.579V289.274L340.199 298.381V465.233L317.816 456.234V296.05" stroke="#D9D9D9" stroke-width="0.515" stroke-miterlimit="10" stroke-linecap="round"></path><path d="M317.816 456.234L252.888 472.976" stroke="#D9D9D9" stroke-width="0.515" stroke-miterlimit="10" stroke-linecap="round"></path><path d="M288.595 312.026L310.534 313.804V354.479H288.595V312.026Z" stroke="#D9D9D9" stroke-width="0.515" stroke-miterlimit="10" stroke-linecap="round"></path><path d="M283.857 312.026V354.479H256.89V309.941L283.857 312.026Z" stroke="#D9D9D9" stroke-width="0.515" stroke-miterlimit="10" stroke-linecap="round"></path><path d="M310.534 359.737H288.595V398.863L310.534 397.391V359.737Z" stroke="#D9D9D9" stroke-width="0.515" stroke-miterlimit="10" stroke-linecap="round"></path><path d="M283.857 359.737V398.863L256.89 400.427V360.335L283.857 359.737Z" stroke="#D9D9D9" stroke-width="0.515" stroke-miterlimit="10" stroke-linecap="round"></path><path d="M201.314 289.274V327.265L125.103 328.599V298.825L201.314 289.274Z" stroke="#D9D9D9" stroke-width="0.515" stroke-miterlimit="10" stroke-linecap="round"></path><path d="M133.657 328.446V297.752" stroke="#D9D9D9" stroke-width="0.515" stroke-miterlimit="10" stroke-linecap="round"></path><path d="M165.853 293.72V327.894" stroke="#D9D9D9" stroke-width="0.515" stroke-miterlimit="10" stroke-linecap="round"></path><path d="M159.613 294.502V327.894" stroke="#D9D9D9" stroke-width="0.515" stroke-miterlimit="10" stroke-linecap="round"></path><path d="M170.33 293.72V327.832" stroke="#D9D9D9" stroke-width="0.515" stroke-miterlimit="10" stroke-linecap="round"></path><path d="M56.5107 307.273V329.795L28.7919 330.285V311.198L56.5107 307.273Z" stroke="#D9D9D9" stroke-width="0.515" stroke-miterlimit="10" stroke-linecap="round"></path><path d="M33.0542 310.6V330.209" stroke="#D9D9D9" stroke-width="0.515" stroke-miterlimit="10" stroke-linecap="round"></path><path d="M42.6514 309.236V330.04" stroke="#D9D9D9" stroke-width="0.515" stroke-miterlimit="10" stroke-linecap="round"></path><path d="M46.4385 308.929V329.979" stroke="#D9D9D9" stroke-width="0.515" stroke-miterlimit="10" stroke-linecap="round"></path><path d="M48.7993 308.362V329.933" stroke="#D9D9D9" stroke-width="0.515" stroke-miterlimit="10" stroke-linecap="round"></path><path d="M619.886 244.138V412.6L249.086 576.233L73.5131 434.938L115.643 430.584L227.101 496.095V256.296L405.939 280.244V447.295" stroke="#D9D9D9" stroke-width="1.03" stroke-miterlimit="10" stroke-linecap="round"></path><path d="M73.5132 69.8501V288.017" stroke="#D9D9D9" stroke-width="1.03" stroke-miterlimit="10" stroke-linecap="round"></path><path d="M439.346 180.651V323.371H427.327V452.707L405.94 447.295L340.199 465.233" stroke="#D9D9D9" stroke-width="1.03" stroke-miterlimit="10" stroke-linecap="round"></path><path d="M619.886 412.6V431.749L249.209 620.111V576.233" stroke="#D9D9D9" stroke-width="1.03" stroke-miterlimit="10" stroke-linecap="round"></path><path d="M56.5107 516.057C45.5795 516.057 36.7181 512.659 36.7181 508.468C36.7181 504.277 45.5795 500.879 56.5107 500.879C67.4418 500.879 76.3032 504.277 76.3032 508.468C76.3032 512.659 67.4418 516.057 56.5107 516.057Z" stroke="#D9D9D9" stroke-width="0.515" stroke-miterlimit="10" stroke-linecap="round"></path><path d="M72.3938 545.018C72.3938 549.203 81.2553 552.607 92.1864 552.607C103.118 552.607 111.979 549.219 111.979 545.018C111.979 540.833 103.118 537.429 92.1864 537.429C81.2553 537.429 72.3938 540.817 72.3938 545.018Z" stroke="#D9D9D9" stroke-width="0.515" stroke-miterlimit="10" stroke-linecap="round"></path><path d="M133.658 599C122.726 599 113.865 595.602 113.865 591.411C113.865 587.22 122.726 583.822 133.658 583.822C144.589 583.822 153.45 587.22 153.45 591.411C153.45 595.602 144.589 599 133.658 599Z" stroke="#D9D9D9" stroke-width="0.515" stroke-miterlimit="10" stroke-linecap="round"></path><path d="M249.209 620.112L11.2377 396.349V190.662L73.513 79.5703L280.454 153.821V224.851L439.346 180.651L619.886 248.523" stroke="#D9D9D9" stroke-width="1.03" stroke-miterlimit="10" stroke-linecap="round"></path><path d="M280.454 224.851V263.394" stroke="#D9D9D9" stroke-width="1.03" stroke-miterlimit="10" stroke-linecap="round"></path><path d="M73.5132 434.938V288.017" stroke="#D9D9D9" stroke-width="1.03" stroke-miterlimit="10" stroke-linecap="round"></path><path d="M227.101 256.296L116.272 279.186L115.643 430.584" stroke="#D9D9D9" stroke-width="1.03" stroke-miterlimit="10" stroke-linecap="round"></path><path d="M404.499 214.686V256.296L293.041 278.097V243.356L404.499 214.686Z" stroke="#D9D9D9" stroke-width="0.515" stroke-miterlimit="10" stroke-linecap="round"></path><path d="M293.041 243.356L302.04 245.61L301.58 276.426" stroke="#D9D9D9" stroke-width="0.515" stroke-miterlimit="10" stroke-linecap="round"></path><path d="M302.04 245.61L404.499 220.129" stroke="#D9D9D9" stroke-width="0.515" stroke-miterlimit="10" stroke-linecap="round"></path><path d="M305.122 275.736V247.557L404.499 223.103" stroke="#D9D9D9" stroke-width="0.515" stroke-miterlimit="10" stroke-linecap="round"></path><path d="M305.122 247.557H307.575V275.261" stroke="#D9D9D9" stroke-width="0.515" stroke-miterlimit="10" stroke-linecap="round"></path><path d="M328.271 241.854V271.198" stroke="#D9D9D9" stroke-width="0.515" stroke-miterlimit="10" stroke-linecap="round"></path><path d="M331.721 241.01V270.263" stroke="#D9D9D9" stroke-width="0.515" stroke-miterlimit="10" stroke-linecap="round"></path><path d="M334.098 241.01V270.171" stroke="#D9D9D9" stroke-width="0.515" stroke-miterlimit="10" stroke-linecap="round"></path><path d="M366.554 232.869V263.716" stroke="#D9D9D9" stroke-width="0.515" stroke-miterlimit="10" stroke-linecap="round"></path><path d="M371.306 262.781V231.26" stroke="#D9D9D9" stroke-width="0.515" stroke-miterlimit="10" stroke-linecap="round"></path><path d="M280.975 135.147V638.877" stroke="#D9D9D9" stroke-width="0.1545" stroke-miterlimit="10" stroke-linecap="round"></path><path d="M73.5132 46.4695V501.262" stroke="#D9D9D9" stroke-width="0.1545" stroke-miterlimit="10" stroke-linecap="round"></path><path d="M357.14 104.407V482.65" stroke="#D9D9D9" stroke-width="0.1545" stroke-miterlimit="10" stroke-linecap="round"></path><path d="M11.2378 148.102V441.423" stroke="#D9D9D9" stroke-width="0.1545" stroke-miterlimit="10" stroke-linecap="round"></path><path d="M226.672 220.972V514.294" stroke="#D9D9D9" stroke-width="0.1545" stroke-miterlimit="10" stroke-linecap="round"></path><path d="M626.801 229.803L48.7993 0.122559" stroke="#D9D9D9" stroke-width="0.1545" stroke-miterlimit="10" stroke-linecap="round"></path><path d="M0.199462 182.935L105.264 0.122559" stroke="#D9D9D9" stroke-width="0.1545" stroke-miterlimit="10" stroke-linecap="round"></path><path d="M132.37 118.466V275.491" stroke="#D9D9D9" stroke-width="0.515" stroke-miterlimit="10" stroke-linecap="round"></path></svg>